<svg xmlns="http://www.w3.org/2000/svg" viewBox="0 0 245.46 106.79"><defs><style>.cls-1{fill:#f20000;}.cls-2{fill:#fc0000;}.cls-3{fill:#fff;}</style></defs><title>actualLogo@1x</title><g id="Layer_2" data-name="Layer 2"><g id="FOOTER"><g id="Logo"><path class="cls-1" d="M27.5,100A51,51,0,0,1,7.33,81,52.38,52.38,0,0,1,0,53.4,52.38,52.38,0,0,1,7.33,25.82a51,51,0,0,1,20.17-19A60.76,60.76,0,0,1,56.48,0,62.22,62.22,0,0,1,81.85,5a48.85,48.85,0,0,1,18.78,14.38L82.15,36.09q-10-12-24.2-12a29.88,29.88,0,0,0-14.89,3.67A25.45,25.45,0,0,0,32.93,38.07,31.82,31.82,0,0,0,29.34,53.4a31.8,31.8,0,0,0,3.59,15.33A25.43,25.43,0,0,0,43.05,79.07a29.85,29.85,0,0,0,14.89,3.67q14.23,0,24.2-12l18.48,16.72A48.81,48.81,0,0,1,81.85,101.8a62.22,62.22,0,0,1-25.38,5A60.76,60.76,0,0,1,27.5,100Z"/><path class="cls-2" d="M64.72,74.93a21.91,21.91,0,0,1,0-38.81,25.63,25.63,0,0,1,12.21-2.88,25.63,25.63,0,0,1,12.21,2.88,21.91,21.91,0,0,1,0,38.81A25.62,25.62,0,0,1,76.93,77.8,25.62,25.62,0,0,1,64.72,74.93Zm18.09-8.69A11,11,0,0,0,87,61.92a14.13,14.13,0,0,0,0-12.79,11,11,0,0,0-4.16-4.32,12.05,12.05,0,0,0-11.75,0,11,11,0,0,0-4.16,4.32,14.13,14.13,0,0,0,0,12.79,11,11,0,0,0,4.16,4.32,12.05,12.05,0,0,0,11.75,0Z"/><path class="cls-3" d="M107.11,34.09h12.12V67.34h20.45v9.61H107.11Z"/><path class="cls-3" d="M144.45,34.09h12.12V76.95H144.45Z"/><path class="cls-3" d="M208.55,34.09,190.18,76.95H178.24l-18.3-42.85H173L184.67,62l11.88-27.92Z"/><path class="cls-3" d="M245.46,67.58v9.37h-34.4V34.09h33.61v9.37H223.05v7.22h19v9.06h-19v7.84Z"/></g></g></g></svg>